<svg width="200" height="56" viewBox="0 0 200 56" fill="none" xmlns="http://www.w3.org/2000/svg">
<path d="M21.2891 17.5751H21.1778C20.4122 16.6607 19.336 15.8189 17.9493 15.0495C16.5626 14.2802 14.8699 13.8961 12.8712 13.8974C11.0284 13.8696 9.20347 14.2636 7.53524 15.0495C5.98073 15.797 4.60103 16.8652 3.48641 18.1844C2.3531 19.5395 1.48085 21.0942 0.914149 22.7692C0.30638 24.5231 -0.0026279 26.3671 8.60586e-05 28.224C-0.00579423 30.0881 0.289708 31.9408 0.875086 33.7101C1.42228 35.4028 2.28379 36.9763 3.41415 38.3478C4.53567 39.6907 5.92392 40.7844 7.49032 41.5591C9.19423 42.3842 11.0673 42.7969 12.9591 42.7641C14.744 42.7725 16.5092 42.3893 18.1309 41.6414C19.6675 40.9633 20.971 39.8464 21.879 38.43H21.9884V41.998H30.2501V0H21.2891V17.5751ZM21.2052 30.8573C20.9064 31.6825 20.4611 32.4466 19.8907 33.1125C19.3189 33.7746 18.621 34.3155 17.838 34.7034C16.986 35.1161 16.0495 35.3228 15.1036 35.3069C14.1361 35.3275 13.1773 35.1194 12.3048 34.6995C11.5299 34.3164 10.8429 33.776 10.2872 33.1125C9.73272 32.4407 9.3147 31.6666 9.05673 30.8338C8.78592 29.9918 8.64754 29.1126 8.64657 28.2279C8.64622 27.3514 8.78466 26.4804 9.05673 25.6475C9.31156 24.8266 9.7312 24.0668 10.2898 23.4148C10.8484 22.7627 11.5341 22.2323 12.3048 21.8562C13.1751 21.4381 14.1311 21.2308 15.0958 21.2508C16.0419 21.2355 16.9784 21.4428 17.8302 21.8562C18.6136 22.2434 19.3116 22.7844 19.8829 23.4471C20.4521 24.112 20.8968 24.8747 21.1954 25.6984C21.8179 27.3613 21.8179 29.1943 21.1954 30.8573H21.2052ZM36.9259 41.9999H45.8985V14.6655H36.9239L36.9259 41.9999ZM68.6837 13.8974C67.1071 13.8694 65.5607 14.3329 64.2579 15.2239C62.9947 16.0913 61.9767 17.2719 61.3028 18.6507H61.1934V14.6949H52.5391V41.9999H61.5235V27.9849C61.5408 27.3344 61.6513 26.6897 61.8516 26.0707C62.0744 25.3336 62.4364 24.6465 62.9181 24.0467C63.459 23.3872 64.13 22.8469 64.8888 22.4597C65.7091 22.0208 66.7214 21.8013 67.9259 21.8013C68.2891 21.8013 68.6641 21.819 69.047 21.8562C69.443 21.8962 69.835 21.9696 70.2188 22.0756L70.6095 14.1149C70.3323 14.0326 70.0477 13.9781 69.7598 13.9523C69.4023 13.9156 69.0431 13.8973 68.6837 13.8974ZM97.297 17.7397C96.0887 16.4536 94.613 15.4502 92.9747 14.8007C91.2148 14.1077 89.3379 13.7624 87.4473 13.7838C85.4638 13.7671 83.4945 14.1219 81.6407 14.8301C79.9111 15.4897 78.3301 16.4888 76.9903 17.769C75.6444 19.0752 74.5807 20.6452 73.8653 22.3813C73.0769 24.3071 72.6862 26.3735 72.7169 28.4552C72.7169 30.7619 73.1075 32.8114 73.8888 34.6035C74.6247 36.3299 75.7264 37.875 77.1173 39.1315C78.5121 40.374 80.1394 41.3258 81.9044 41.9313C83.7701 42.5777 85.7314 42.9023 87.7052 42.8914C90.476 42.8914 92.9109 42.3879 95.0098 41.3808C97.0507 40.4231 98.7987 38.9347 100.072 37.0703L93.8497 33.1125C93.2105 33.9703 92.3876 34.6734 91.4415 35.1697C90.4571 35.7014 89.2533 35.9672 87.8302 35.9672C86.2616 35.9658 84.7357 35.4551 83.4806 34.5114C82.8921 34.0684 82.3908 33.5196 82.002 32.893C81.6157 32.2602 81.3816 31.5457 81.3184 30.8063H101.072C101.11 30.4595 101.128 30.1109 101.127 29.762V28.6648C101.127 26.3254 100.79 24.24 100.115 22.4087C99.5003 20.6772 98.5415 19.0888 97.297 17.7397ZM81.3184 25.2047C81.3563 24.5051 81.5428 23.8217 81.8653 23.2003C82.1925 22.5632 82.6388 21.9951 83.1798 21.527C83.7457 21.0399 84.3939 20.6584 85.0938 20.4004C85.8645 20.1179 86.6796 19.9772 87.5001 19.985C89.2878 19.985 90.6283 20.4977 91.5216 21.5231C92.4125 22.537 92.8914 23.8495 92.8634 25.2007L81.3184 25.2047ZM115.738 23.4197C116.285 22.7802 116.955 22.2578 117.707 21.8836C118.507 21.4914 119.389 21.294 120.279 21.3076C121.206 21.3113 122.121 21.5172 122.961 21.911C123.773 22.2672 124.486 22.8167 125.039 23.5118L130.238 17.4752C129.65 16.8957 128.994 16.3892 128.285 15.9665C127.509 15.4946 126.684 15.1083 125.824 14.8144C124.918 14.4954 123.99 14.2439 123.047 14.062C122.081 13.8786 121.1 13.7867 120.117 13.7877C118.082 13.7736 116.061 14.1178 114.145 14.8046C112.347 15.4387 110.693 16.4265 109.281 17.7103C107.892 18.9944 106.785 20.5562 106.033 22.2951C105.221 24.2018 104.818 26.2585 104.85 28.3317C104.85 30.6032 105.244 32.6344 106.033 34.4252C106.783 36.1641 107.89 37.7249 109.281 39.0061C110.69 40.2899 112.345 41.2719 114.145 41.8922C116.084 42.559 118.122 42.8903 120.172 42.8718C122.108 42.884 124.032 42.5687 125.863 41.9392C127.651 41.3161 129.11 40.456 130.24 39.3588L125.262 33.2653C124.683 33.947 123.938 34.4674 123.1 34.7759C122.237 35.117 121.318 35.2938 120.391 35.2971C119.477 35.3121 118.57 35.1248 117.736 34.7485C116.964 34.393 116.274 33.8783 115.713 33.2379C115.141 32.5903 114.704 31.835 114.426 31.016C114.129 30.1505 113.982 29.2409 113.988 28.3258C113.983 27.4111 114.14 26.5028 114.453 25.6435C114.745 24.831 115.181 24.0778 115.738 23.4197ZM145.182 7.4748H136.371V14.6655H132.049V21.3566H136.428V32.9165C136.41 34.2628 136.574 35.6053 136.914 36.9077C137.212 38.0443 137.764 39.0981 138.527 39.9897C139.337 40.8936 140.364 41.5748 141.51 41.9686C142.751 42.4297 144.283 42.6596 146.106 42.6583C147.059 42.6578 148.011 42.5752 148.951 42.4114C149.75 42.284 150.537 42.0914 151.305 41.8353L151.195 35.2501C150.801 35.4133 150.388 35.5233 149.965 35.5773C149.503 35.6486 149.036 35.6853 148.568 35.687C147.291 35.687 146.406 35.3657 145.914 34.723C145.422 34.0804 145.176 33.1164 145.176 31.8311V21.3566H151.578V14.6655H145.182V7.4748ZM156.315 41.9999H165.453V0H156.316L156.315 41.9999ZM190.479 14.6655L185.061 32.2308H184.897L178.822 14.6655H168.861L180.244 41.561L179.369 43.8103C178.932 44.9859 178.402 45.8924 177.781 46.5299C177.16 47.1673 176.157 47.4867 174.772 47.488C174.285 47.4839 173.801 47.438 173.322 47.3508C172.831 47.2678 172.346 47.1486 171.871 46.9942L170.895 54.5689C171.658 54.772 172.436 54.9187 173.221 55.0078C174.083 55.1156 174.951 55.1706 175.82 55.1724C177.327 55.2002 178.828 54.9967 180.274 54.5689C181.475 54.1973 182.591 53.5906 183.557 52.784C184.509 51.971 185.322 51.0074 185.965 49.9312C186.686 48.7161 187.299 47.4395 187.797 46.1164L200 14.6655H190.479Z" fill="#FFCC00"/>
<path d="M41.8086 10.933C44.8192 10.933 47.2598 8.48556 47.2598 5.46649C47.2598 2.44743 44.8192 0 41.8086 0C38.798 0 36.3574 2.44743 36.3574 5.46649C36.3574 8.48556 38.798 10.933 41.8086 10.933Z" fill="#FFCC00"/>
</svg>
